<?xml version="1.0" standalone="no"?>
<!DOCTYPE svg PUBLIC "-//W3C//DTD SVG 20010904//EN"
 "http://www.w3.org/TR/2001/REC-SVG-20010904/DTD/svg10.dtd">
<svg version="1.0" xmlns="http://www.w3.org/2000/svg"
 width="356.000000pt" height="356.000000pt" viewBox="0 0 356.000000 356.000000"
 preserveAspectRatio="xMidYMid meet">

<g transform="translate(0.000000,356.000000) scale(0.100000,-0.100000)"
fill="#000000" stroke="none">
<path d="M1591 3539 c-314 -33 -633 -163 -901 -366 -65 -49 -224 -207 -285
-283 -123 -152 -242 -368 -301 -545 -121 -365 -122 -745 -2 -1120 47 -147 163
-371 257 -495 314 -417 768 -668 1286 -712 423 -36 878 100 1220 366 80 62
225 205 290 286 123 152 242 368 301 545 190 573 79 1200 -297 1670 -74 93
-234 246 -339 325 -114 85 -345 204 -485 248 -250 80 -495 107 -744 81z m-141
-1196 c0 -278 3 -504 6 -500 3 3 90 230 193 504 l187 498 413 0 413 0 28 -75
c15 -41 134 -358 265 -705 332 -882 345 -916 345 -921 0 -2 -140 -3 -312 -2
l-312 3 -236 627 c-129 345 -238 628 -241 628 -3 0 -34 -100 -68 -222 -35
-123 -66 -228 -68 -235 -4 -9 28 -13 128 -15 l133 -3 93 -245 c51 -135 93
-246 93 -247 0 -2 -134 -3 -299 -3 l-298 0 -18 -65 -17 -65 -251 0 -250 0 -76
-72 c-42 -40 -119 -113 -171 -163 -52 -50 -184 -175 -292 -279 l-198 -188 0
378 0 379 105 105 105 105 0 642 0 643 300 0 300 0 0 -507z"/>
</g>
</svg>
