<?xml version="1.0" standalone="no"?>
<!DOCTYPE svg PUBLIC "-//W3C//DTD SVG 20010904//EN"
 "http://www.w3.org/TR/2001/REC-SVG-20010904/DTD/svg10.dtd">
<svg version="1.0" xmlns="http://www.w3.org/2000/svg"
 width="328.000000pt" height="328.000000pt" viewBox="0 0 328.000000 328.000000"
 preserveAspectRatio="xMidYMid meet">

<g transform="translate(0.000000,328.000000) scale(0.100000,-0.100000)"
fill="#000000" stroke="none">
<path d="M580 2557 c-25 -12 -25 -15 -28 -144 l-3 -131 46 -75 c25 -41 45 -78
45 -83 0 -5 -80 -48 -178 -96 -187 -93 -275 -150 -280 -184 -2 -17 19 -74 83
-219 12 -28 8 -46 -47 -224 -34 -112 -57 -203 -54 -216 6 -23 43 -45 77 -45
11 0 52 18 90 41 37 23 83 42 101 42 29 2 33 -1 41 -36 11 -45 46 -67 107 -67
22 0 40 -3 40 -7 0 -5 -16 -33 -35 -63 l-35 -54 0 -128 0 -128 42 -30 41 -30
317 0 317 0 41 30 42 30 0 233 c0 127 4 238 9 246 11 17 42 7 68 -22 11 -12
54 -77 97 -144 43 -67 86 -125 96 -128 33 -11 56 12 135 132 86 132 121 173
146 173 25 0 29 -39 29 -276 l0 -214 42 -30 41 -30 309 0 c419 0 412 -3 406
202 -3 119 -4 125 -35 172 -34 52 -35 58 -5 61 75 7 108 30 114 80 3 27 6 30
39 29 22 -1 61 -16 105 -42 80 -48 112 -52 151 -18 l27 24 -62 203 -62 204 51
117 c34 80 48 125 44 139 -9 29 -112 93 -297 185 -87 43 -158 83 -158 89 0 5
21 44 45 85 l46 75 -3 130 c-3 127 -4 130 -28 142 -19 9 -107 13 -345 13 -176
0 -330 -3 -342 -6 -15 -4 -61 -66 -143 -195 -66 -104 -124 -199 -129 -211 -8
-21 -14 -23 -103 -24 -94 -1 -95 -1 -105 26 -12 32 -219 359 -242 381 -14 14
-60 17 -351 23 -259 4 -341 3 -360 -7z m430 -47 l245 0 117 -183 118 -182
-107 -12 c-256 -29 -572 -126 -885 -273 l-28 -13 0 -248 0 -248 -127 -75 c-70
-41 -128 -74 -130 -73 -1 2 26 93 61 202 l62 200 -53 115 -53 115 27 23 c30
24 357 192 411 210 49 17 44 56 -18 154 l-50 79 0 111 0 111 83 -6 c45 -4 192
-7 327 -7z m1668 -99 l3 -104 -51 -82 c-32 -53 -50 -94 -50 -114 0 -27 5 -33
43 -48 67 -26 306 -148 369 -188 l57 -36 -35 -77 c-20 -42 -44 -96 -54 -118
l-18 -41 63 -199 c34 -110 61 -200 60 -202 -2 -3 -210 119 -243 143 -23 16
-23 17 -21 258 l2 242 -104 51 c-248 123 -549 208 -847 239 l-63 7 27 47 c15
25 69 110 121 189 l93 142 322 -2 323 -3 3 -104z m-731 -346 c224 -30 480
-105 685 -202 l118 -56 0 -308 c0 -170 -4 -309 -9 -309 -4 0 -55 22 -112 49
-187 88 -471 175 -679 207 -125 19 -422 22 -555 5 -247 -32 -516 -107 -737
-206 -67 -30 -123 -55 -125 -55 -2 0 -3 140 -3 311 l0 310 94 44 c233 108 506
187 736 214 130 15 458 12 587 -4z m-62 -687 c5 -5 -221 -367 -243 -390 -6 -6
-252 369 -252 385 0 3 15 8 33 10 48 7 454 3 462 -5z m-587 -310 l-3 -303
-347 -3 -348 -2 0 109 0 110 50 78 c34 52 50 89 50 110 0 28 5 35 38 49 119
51 471 151 540 153 l22 1 -2 -302z m887 262 c106 -27 291 -87 361 -116 29 -12
34 -19 34 -49 0 -24 14 -56 44 -103 l45 -69 2 -114 2 -114 -347 -3 -346 -2 0
306 0 306 48 -7 c26 -4 97 -20 157 -35z"/>
<path d="M1505 1806 c-43 -125 -61 -165 -76 -169 -14 -4 -19 -14 -19 -36 0
-27 3 -31 28 -31 15 0 44 3 65 6 32 6 37 10 37 34 0 16 -5 30 -11 32 -9 3 -9
12 -2 34 9 28 12 29 76 32 64 3 68 2 77 -23 14 -36 13 -45 -5 -45 -10 0 -15
-10 -15 -30 l0 -30 75 0 c74 0 75 0 75 25 0 17 -7 28 -22 34 -19 7 -33 40 -78
170 l-54 161 -47 0 -46 0 -58 -164z m129 20 c9 -27 16 -51 16 -53 0 -2 -21 -3
-46 -3 -40 0 -45 2 -39 18 4 9 14 36 22 60 18 50 24 47 47 -22z"/>
<path d="M1790 1915 c0 -41 4 -55 14 -55 8 0 21 -3 30 -6 12 -5 16 0 16 20 0
27 13 32 58 20 22 -6 23 -9 20 -138 -3 -118 -5 -131 -20 -128 -14 2 -18 -4
-18 -27 0 -16 3 -32 8 -34 4 -3 37 -8 75 -12 l67 -7 0 31 c0 21 -5 31 -15 31
-13 0 -15 22 -15 136 0 120 2 135 16 130 9 -3 24 -6 35 -6 13 0 19 -7 19 -24
0 -24 16 -36 51 -36 16 0 19 7 19 49 0 28 -4 52 -9 55 -11 7 -223 42 -298 50
l-53 5 0 -54z"/>
<path d="M1231 1938 c-162 -28 -161 -27 -161 -88 0 -52 4 -55 48 -44 14 4 22
14 22 29 0 15 8 25 23 29 47 13 47 13 47 -129 0 -113 -2 -135 -15 -135 -10 0
-15 -10 -15 -30 0 -34 0 -34 87 -19 60 11 63 12 63 40 0 22 -5 29 -20 29 -20
0 -20 5 -18 132 l3 133 38 6 c34 5 37 4 37 -18 0 -19 5 -23 30 -23 30 0 30 1
30 55 l0 55 -42 -1 c-24 0 -94 -10 -157 -21z"/>
<path d="M2215 1892 c-11 -11 -4 -53 10 -58 23 -9 22 -274 -1 -274 -11 0 -14
-8 -12 -25 3 -23 16 -30 152 -75 82 -28 151 -50 155 -50 4 0 5 18 3 41 -4 35
-9 43 -36 54 -23 10 -33 10 -38 2 -5 -9 -23 -6 -65 8 l-58 20 -3 53 c-2 28 1
52 6 52 5 0 29 -7 52 -15 56 -20 57 -20 52 13 -3 25 -11 31 -58 46 l-54 17 0
50 c0 43 2 50 18 45 9 -2 37 -10 61 -17 26 -8 46 -20 48 -30 4 -14 49 -39 69
-39 2 0 4 19 4 43 l0 43 -77 28 c-126 45 -222 74 -228 68z"/>
<path d="M874 1844 c-60 -21 -76 -31 -103 -68 -26 -37 -31 -54 -31 -99 0 -81
13 -88 108 -55 42 14 80 24 84 22 13 -8 9 -101 -4 -111 -11 -8 -103 -43 -115
-43 -2 0 -3 9 -3 20 0 23 2 23 -39 9 -25 -9 -31 -17 -31 -39 0 -21 7 -30 29
-40 46 -19 154 20 204 73 35 38 37 44 37 108 0 58 -3 70 -21 83 -19 13 -28 12
-92 -10 -39 -13 -74 -24 -79 -24 -5 0 -8 21 -6 47 l3 46 54 19 c38 12 57 15
61 7 5 -6 21 -8 44 -4 46 9 50 42 7 68 -16 9 -31 17 -33 16 -1 0 -35 -12 -74
-25z"/>
</g>
</svg>
