<?xml version="1.0" encoding="UTF-8"?>
<svg version="1.1" xmlns="http://www.w3.org/2000/svg" width="512" height="512">
<path d="M0 0 C1.51894363 0.00031723 1.51894363 0.00031723 3.068573 0.00064087 C19.2756616 0.03435737 34.79111266 0.98973495 50.6875 4.375 C51.61127441 4.56223633 52.53504883 4.74947266 53.48681641 4.94238281 C89.16003 12.27327569 123.72836704 27.19390202 152.6875 49.375 C153.2654834 49.81166992 153.8434668 50.24833984 154.43896484 50.69824219 C162.94555001 57.13904175 170.99213743 63.9799102 178.6875 71.375 C179.28208008 71.94234863 179.87666016 72.50969727 180.48925781 73.09423828 C188.83768303 81.10037376 196.48732842 89.31990948 203.37695312 98.61572266 C204.70547091 100.39912413 206.06110037 102.15909516 207.421875 103.91796875 C214.78116971 113.54366112 220.89519954 123.74359138 226.6875 134.375 C227.0494043 135.0354834 227.41130859 135.6959668 227.78417969 136.37646484 C247.68518553 173.14095458 257.14282956 214.07636128 257.0625 255.6875 C257.06228851 256.70012909 257.06207703 257.71275818 257.06185913 258.756073 C257.02814263 274.9631616 256.07276505 290.47861266 252.6875 306.375 C252.50026367 307.29877441 252.31302734 308.22254883 252.12011719 309.17431641 C244.78922431 344.84753 229.86859798 379.41586704 207.6875 408.375 C207.25083008 408.9529834 206.81416016 409.5309668 206.36425781 410.12646484 C199.92345825 418.63305001 193.0825898 426.67963743 185.6875 434.375 C185.12015137 434.96958008 184.55280273 435.56416016 183.96826172 436.17675781 C175.96212624 444.52518303 167.74259052 452.17482842 158.44677734 459.06445312 C156.66337587 460.39297091 154.90340484 461.74860037 153.14453125 463.109375 C143.51883888 470.46866971 133.31890862 476.58269954 122.6875 482.375 C122.0270166 482.7369043 121.3665332 483.09880859 120.68603516 483.47167969 C83.92154542 503.37268553 42.98613872 512.83032956 1.375 512.75 C0.36237091 512.74978851 -0.65025818 512.74957703 -1.693573 512.74935913 C-17.9006616 512.71564263 -33.41611266 511.76026505 -49.3125 508.375 C-50.23627441 508.18776367 -51.16004883 508.00052734 -52.11181641 507.80761719 C-87.78503 500.47672431 -122.35336704 485.55609798 -151.3125 463.375 C-151.8904834 462.93833008 -152.4684668 462.50166016 -153.06396484 462.05175781 C-161.57055001 455.61095825 -169.61713743 448.7700898 -177.3125 441.375 C-177.90708008 440.80765137 -178.50166016 440.24030273 -179.11425781 439.65576172 C-187.46268303 431.64962624 -195.11232842 423.43009052 -202.00195312 414.13427734 C-203.33047091 412.35087587 -204.68610037 410.59090484 -206.046875 408.83203125 C-213.40616971 399.20633888 -219.52019954 389.00640862 -225.3125 378.375 C-225.6744043 377.7145166 -226.03630859 377.0540332 -226.40917969 376.37353516 C-246.31018553 339.60904542 -255.76782956 298.67363872 -255.6875 257.0625 C-255.68728851 256.04987091 -255.68707703 255.03724182 -255.68685913 253.993927 C-255.65314263 237.7868384 -254.69776505 222.27138734 -251.3125 206.375 C-251.12526367 205.45122559 -250.93802734 204.52745117 -250.74511719 203.57568359 C-243.41422431 167.90247 -228.49359798 133.33413296 -206.3125 104.375 C-205.87583008 103.7970166 -205.43916016 103.2190332 -204.98925781 102.62353516 C-198.54845825 94.11694999 -191.7075898 86.07036257 -184.3125 78.375 C-183.74515137 77.78041992 -183.17780273 77.18583984 -182.59326172 76.57324219 C-174.58712624 68.22481697 -166.36759052 60.57517158 -157.07177734 53.68554688 C-155.28837587 52.35702909 -153.52840484 51.00139963 -151.76953125 49.640625 C-142.14383888 42.28133029 -131.94390862 36.16730046 -121.3125 30.375 C-120.6520166 30.0130957 -119.9915332 29.65119141 -119.31103516 29.27832031 C-82.54654542 9.37731447 -41.61113872 -0.08032956 0 0 Z " fill="#20312A" transform="translate(255.3125,-0.375)"/>
<path d="M0 0 C0.76292185 0.00223072 1.52584371 0.00446144 2.3118844 0.00675976 C3.11649308 0.00519977 3.92110175 0.00363978 4.75009251 0.00203252 C7.46711915 -0.00198081 10.18409067 0.00121344 12.9011178 0.00434887 C14.84050514 0.00299498 16.77989222 0.00121512 18.71927881 -0.00096118 C24.00218248 -0.00553694 29.28506672 -0.00374538 34.56797075 -0.0005821 C40.08352065 0.00194077 45.59906882 -0.00039583 51.11461878 -0.00196826 C60.37890406 -0.00379017 69.64318138 -0.00138309 78.90746546 0.00337231 C89.63485604 0.00881497 100.36222761 0.00705233 111.08961773 0.00154591 C120.28193576 -0.00298462 129.47424806 -0.00363607 138.66656685 -0.00101542 C144.1646196 0.00054769 149.6626634 0.00074019 155.16071558 -0.00255191 C160.32834565 -0.00542975 165.49595111 -0.00345656 170.66357851 0.00234234 C172.56597652 0.00367041 174.46837659 0.00327504 176.37077379 0.00107968 C178.95623431 -0.00162999 181.54161462 0.00174703 184.12706995 0.00675976 C184.8899918 0.00452904 185.65291366 0.00229832 186.43895435 0 C191.60532733 0.01959356 191.60532733 0.01959356 192.71947718 1.13374341 C192.93002962 2.69557193 193.07811518 4.2658906 193.20019007 5.83711255 C193.28019754 6.83807461 193.36020502 7.83903668 193.44263697 8.87033093 C193.5249708 9.95885861 193.60730463 11.04738629 193.69213343 12.16889966 C193.77950266 13.27728695 193.86687189 14.38567425 193.95688868 15.52764904 C194.23619076 19.08352802 194.50914645 22.63986261 194.78197718 26.19624341 C194.96971182 28.60057283 195.15785738 31.00487021 195.3464303 33.40913403 C195.8088892 39.31697294 196.26613236 45.22519852 196.71947718 51.13374341 C194.73947718 51.13374341 192.75947718 51.13374341 190.71947718 51.13374341 C190.3733639 49.57526684 190.3733639 49.57526684 190.02025843 47.98530591 C187.11253565 35.3401282 184.04656569 24.74962745 172.71947718 17.13374341 C159.26654997 10.26797434 143.09469941 11.54790538 128.44994593 12.63545239 C119.03897372 13.27169433 109.64788067 13.26042931 100.21947718 13.23139966 C98.40388513 13.22952883 96.58829257 13.22810808 94.77269983 13.22711194 C90.05137155 13.223339 85.33007526 13.21355498 80.6087594 13.20240796 C75.76806556 13.19207989 70.92736642 13.18759019 66.08666468 13.18257153 C56.63092165 13.17192666 47.1752021 13.15491509 37.71947718 13.13374341 C40.29207592 17.0320574 42.92215603 20.727497 45.90697718 24.32124341 C46.70103968 25.28159497 47.49510218 26.24194653 48.31322718 27.23139966 C49.10728968 28.18917309 49.90135218 29.14694653 50.71947718 30.13374341 C52.11658724 31.84103276 53.51241902 33.54936895 54.90697718 35.25874341 C58.83393228 40.05911935 62.77554686 44.84730816 66.71947718 49.63374341 C72.79204198 57.00353341 78.85458638 64.38125562 84.87963343 71.78999341 C88.96352578 76.80302529 93.09358375 81.7705834 97.28197718 86.69624341 C101.86751144 92.09413522 106.32066137 97.58229672 110.71947718 103.13374341 C112.88383747 105.84392327 115.05176575 108.55124362 117.21947718 111.25874341 C118.2716178 112.57380174 119.32370583 113.88890215 120.37572718 115.20405591 C121.14916468 116.17085278 121.92260218 117.13764966 122.71947718 118.13374341 C121.24868633 121.37835235 119.40523541 123.93928835 117.15697718 126.69624341 C116.44283655 127.57538403 115.72869593 128.45452466 114.99291468 129.36030591 C114.2426803 130.27554028 113.49244593 131.19077466 112.71947718 132.13374341 C111.9898678 133.02835278 111.26025843 133.92296216 110.50853968 134.84468091 C108.24951322 137.61099751 105.98512626 140.37284917 103.71947718 143.13374341 C96.35973347 152.11235865 89.03703678 161.1207538 81.71947718 170.13374341 C74.4019108 179.14674135 67.07775547 188.1539186 59.71947718 197.13374341 C58.21933436 198.96695988 56.71933635 200.80029486 55.21947718 202.63374341 C53.01719552 205.32584288 50.81459081 208.01766954 48.61010218 210.70796216 C47.15944911 212.47892365 45.71027532 214.25109771 44.26244593 216.02436841 C42.29284281 218.43638951 40.31339151 220.8401485 38.33275843 223.24311841 C37.14903502 224.68572036 35.96544086 226.12842838 34.78197718 227.57124341 C34.21382288 228.25791089 33.64566858 228.94457837 33.06029749 229.65205395 C32.52630335 230.30472241 31.99230921 230.95739087 31.44213343 231.62983716 C30.96526087 232.20919018 30.48838831 232.78854321 29.99706507 233.38545239 C28.63654623 235.24722869 27.58134361 236.99292532 26.71947718 239.13374341 C27.04947718 239.79374341 27.37947718 240.45374341 27.71947718 241.13374341 C43.72384113 241.18068574 59.7281824 241.21584029 75.73259878 241.23736775 C83.16550433 241.24763373 90.59836685 241.26160332 98.03124475 241.28462231 C104.51778129 241.30470081 111.00428662 241.31749373 117.49085337 241.32192039 C120.91813356 241.32450359 124.34532456 241.33047461 127.77257586 241.34520352 C160.62073963 242.79872552 160.62073963 242.79872552 189.71947718 230.13374341 C196.27577273 222.24941357 199.44471883 212.6941185 202.71947718 203.13374341 C204.03947718 203.46374341 205.35947718 203.79374341 206.71947718 204.13374341 C206.18520905 215.38472141 204.43491279 226.43100371 202.70824671 237.54805005 C202.21583429 240.71970747 201.73076143 243.89242394 201.24682093 247.06538403 C200.93604497 249.0895374 200.62486193 251.11362832 200.31322718 253.13764966 C200.16840906 254.08241665 200.02359095 255.02718365 199.8743844 256.00057995 C199.73754236 256.87927243 199.60070032 257.7579649 199.45971155 258.66328442 C199.2810354 259.81692235 199.2810354 259.81692235 199.09874964 260.99386609 C198.73267057 263.05930553 198.22822732 265.09874284 197.71947718 267.13374341 C130.39947718 267.13374341 63.07947718 267.13374341 -6.28052282 267.13374341 C-5.29994315 261.25026539 -4.17580312 259.2375633 -0.40552282 255.13374341 C0.60195269 253.9925117 1.6070899 252.84921227 2.61010218 251.70405591 C3.12637171 251.11785473 3.64264124 250.53165356 4.1745553 249.92768872 C6.66650102 247.03407033 9.00501626 244.02598431 11.34447718 241.00874341 C15.25525082 235.9886374 19.22685088 231.02873085 23.27025843 226.11421216 C26.28676206 222.44341108 29.28573875 218.7585925 32.28197718 215.07124341 C33.12864954 214.02927807 33.12864954 214.02927807 33.9924264 212.96626294 C37.5365053 208.6007294 41.05779712 204.21788449 44.56322718 199.82124341 C48.00158993 195.5357478 51.47449445 191.27837071 54.94213343 187.01655591 C57.8826998 183.40054622 60.81391793 179.77800415 63.71947718 176.13374341 C67.19223373 171.77808265 70.70375816 167.45472213 74.21947718 163.13374341 C78.45765257 157.92413058 82.69512568 152.71476068 86.86010218 147.44624341 C88.21817024 145.75721758 89.60826486 144.09380136 91.01635218 142.44624341 C91.76400843 141.55936841 92.51166468 140.67249341 93.28197718 139.75874341 C93.96389124 138.96725903 94.6458053 138.17577466 95.34838343 137.36030591 C96.8996631 135.28948506 96.8996631 135.28948506 96.68432093 133.16108716 C95.38449755 130.42987934 93.6767271 128.37848767 91.71947718 126.07124341 C90.90478968 125.10057934 90.09010218 124.12991528 89.25072718 123.12983716 C88.41541468 122.14112622 87.58010218 121.15241528 86.71947718 120.13374341 C85.21597504 118.30328105 83.7158877 116.47000773 82.21947718 114.63374341 C81.47053186 113.71850903 80.72158655 112.80327466 79.94994593 111.86030591 C78.51447782 110.10556556 77.07953922 108.35039186 75.64525843 106.59468091 C71.69401604 101.75970409 67.73201992 96.93396615 63.7592721 92.11665356 C58.55642564 85.8073772 53.36991242 79.48589434 48.21947718 73.13374341 C43.64693541 67.49991861 39.06985963 61.86987224 34.46947718 56.25874341 C33.88392054 55.54428051 33.2983639 54.82981762 32.69506311 54.09370434 C28.74890577 49.30784403 24.68092827 44.69495921 20.39135218 40.21186841 C18.57602101 37.95542873 17.65403892 35.86113787 16.71947718 33.13374341 C16.05947718 33.13374341 15.39947718 33.13374341 14.71947718 33.13374341 C14.38947718 31.81374341 14.05947718 30.49374341 13.71947718 29.13374341 C13.05947718 29.13374341 12.39947718 29.13374341 11.71947718 29.13374341 C10.28197718 27.41889966 10.28197718 27.41889966 8.71947718 25.19624341 C6.67130914 22.14741704 6.67130914 22.14741704 3.71947718 20.13374341 C3.32760218 19.47374341 2.93572718 18.81374341 2.53197718 18.13374341 C0.39098899 14.59003883 -2.17617712 11.56494084 -4.85474157 8.41499341 C-6.5274904 5.73859528 -6.64691732 4.23482144 -6.28052282 1.13374341 C-4.54716389 -0.59961553 -2.31068051 0.0087633 0 0 Z " fill="#FCFDFD" transform="translate(87.28052282333374,103.8662565946579)"/>
<path d="M0 0 C7.87192187 6.50289198 12.98616839 13.932799 16.875 23.375 C16.875 24.035 16.875 24.695 16.875 25.375 C17.535 25.375 18.195 25.375 18.875 25.375 C19.184375 23.456875 19.184375 23.456875 19.5 21.5 C21.12457825 13.23376361 24.12316715 5.3189703 26.875 -2.625 C31.495 -2.625 36.115 -2.625 40.875 -2.625 C38.85219286 5.91688671 36.64337869 14.36430264 34.04296875 22.75 C33.79999054 23.53842285 33.55701233 24.3268457 33.30667114 25.13916016 C32.30706067 28.37658123 31.30438896 31.61275184 30.27954102 34.84228516 C29.51965228 37.24482191 28.77987969 39.65283186 28.04296875 42.0625 C27.80974411 42.78034668 27.57651947 43.49819336 27.33622742 44.23779297 C24.58841793 53.36019756 27.34777782 61.76115215 30.875 70.375 C33.31339697 74.04787993 33.31339697 74.04787993 36.875 76.375 C40.71786488 76.73753442 43.1268465 76.77517513 46.5625 74.9375 C49.68764432 71.47450224 51.22145123 67.69824482 52.875 63.375 C53.535 63.375 54.195 63.375 54.875 63.375 C53.8292846 72.73961556 52.2627917 79.55952895 45 85.875 C41.21491445 87.69184106 39.02924905 87.96846415 34.875 87.375 C28.51040465 84.25510032 26.05483639 79.69197775 23.77734375 73.2890625 C23.06835622 71.14939404 22.37723598 69.00369402 21.70703125 66.8515625 C21.10783293 64.45946697 21.10783293 64.45946697 19.875 63.375 C19.49988281 64.02726562 19.12476563 64.67953125 18.73828125 65.3515625 C12.53418744 75.94696703 5.6287352 84.30767294 -6.54296875 87.91015625 C-17.86757753 89.94892848 -30.37603028 88.82283344 -40.125 82.375 C-49.94283138 74.69147979 -54.84109726 63.58669053 -56.52734375 51.48828125 C-58.13608961 36.50344621 -55.56337953 22.28564774 -46.4375 10.0625 C-34.1442569 -4.2565959 -17.01301633 -8.84676849 0 0 Z M-30.85546875 7.359375 C-38.65873018 18.22613907 -39.31333047 30.65898067 -39.375 43.625 C-39.395625 44.69363281 -39.41625 45.76226562 -39.4375 46.86328125 C-39.48735287 57.12051015 -37.8661952 69.35211065 -30.453125 77.12890625 C-24.70970701 82.22189442 -20.53492139 83.86422889 -12.8046875 83.6796875 C-8.90724359 83.2365379 -7.01941631 82.00628755 -4.125 79.375 C-3.57457031 78.88515625 -3.02414062 78.3953125 -2.45703125 77.890625 C7.09849418 68.35619345 14.3216787 49.1186552 15.015625 35.64453125 C13.63182151 25.80964214 7.07385671 13.1497449 -0.3984375 6.6328125 C-10.64742472 -0.83364425 -21.81430607 -3.00836911 -30.85546875 7.359375 Z " fill="#FCFDFD" transform="translate(373.125,175.625)"/>
<path d="M0 0 C30.03 0 60.06 0 91 0 C91 1.98 91 3.96 91 6 C61.3 6 31.6 6 1 6 C0.67 4.02 0.34 2.04 0 0 Z " fill="#FEFEFE" transform="translate(311,393)"/>
<path d="M0 0 C2.09375 0.44921875 2.09375 0.44921875 4.65625 2.01171875 C6.66589724 5.41938147 6.64053139 7.55340138 6.09375 11.44921875 C4.29812595 14.20250896 3.04120078 15.97549336 0.09375 17.44921875 C-4.27987014 17.94434556 -6.22580244 17.94145741 -9.84375 15.32421875 C-11.90625 12.44921875 -11.90625 12.44921875 -12.53125 9.51171875 C-11.02015604 2.10735837 -7.23597556 -0.54269817 0 0 Z " fill="#FCFCFC" transform="translate(359.90625,415.55078125)"/>
<path d="M0 0 C2.09765625 0.48046875 2.09765625 0.48046875 4.72265625 2.54296875 C6.53044403 6.40506083 6.28083368 8.41329633 5.09765625 12.48046875 C2.42687148 15.75433396 0.49438686 17.294238 -3.71484375 17.85546875 C-6.90234375 17.48046875 -6.90234375 17.48046875 -9.77734375 15.41796875 C-11.90234375 12.48046875 -11.90234375 12.48046875 -12.52734375 8.98046875 C-11.90234375 5.48046875 -11.90234375 5.48046875 -9.96484375 2.54296875 C-6.37873857 0.12783669 -4.2474651 -0.26236429 0 0 Z " fill="#FEFEFE" transform="translate(359.90234375,358.51953125)"/>
<path d="M0 0 C4.3344683 4.13856013 8.06714281 8.64019822 11.8125 13.3125 C12.7087207 14.42334961 12.7087207 14.42334961 13.62304688 15.55664062 C15.0846418 17.36901834 16.54354027 19.183495 18 21 C15 21 15 21 12.875 19.125 C11.91174853 18.08787955 10.95444346 17.04523199 10 16 C9.24460938 15.22527344 8.48921875 14.45054687 7.7109375 13.65234375 C6.89882812 12.79769531 6.08671875 11.94304687 5.25 11.0625 C4.47140625 10.24910156 3.6928125 9.43570313 2.890625 8.59765625 C0.75318444 5.66088358 0.31276866 3.58120118 0 0 Z " fill="#BFCAC6" transform="translate(142,140)"/>
<path d="M0 0 C0.99 0.495 0.99 0.495 2 1 C2.185625 1.969375 2.37125 2.93875 2.5625 3.9375 C3.8134208 8.97245624 7.48441509 12.13914131 11.00390625 15.765625 C13 18 13 18 14 21 C10.63820226 19.55922954 8.40843732 17.75249979 6 15 C6 14.34 6 13.68 6 13 C5.01 12.67 4.02 12.34 3 12 C2.05078125 10.0390625 2.05078125 10.0390625 1.3125 7.625 C1.06113281 6.83351562 0.80976563 6.04203125 0.55078125 5.2265625 C0 3 0 3 0 0 Z " fill="#E4E9E7" transform="translate(140,138)"/>
<path d="M0 0 C1.33333333 0.66666667 2.66666667 1.33333333 4 2 C4.66 2.268125 5.32 2.53625 6 2.8125 C8.6754635 4.40105645 10.17005731 6.51650636 12 9 C11.67 9.66 11.34 10.32 11 11 C9.5344405 9.92646259 8.07779848 8.8407446 6.625 7.75 C5.81289062 7.14671875 5.00078125 6.5434375 4.1640625 5.921875 C2.03173222 4.02818096 1.05363296 2.61671482 0 0 Z " fill="#E1E6E4" transform="translate(154,159)"/>
<path d="M0 0 C3.2542015 2.83430453 4.5206753 4.68607774 5 9 C2.5 6.75 2.5 6.75 0 4 C0 2.68 0 1.36 0 0 Z " fill="#CAD4D0" transform="translate(142,140)"/>
</svg>
